<?xml version="1.0" standalone="no"?>
<!DOCTYPE svg PUBLIC "-//W3C//DTD SVG 20010904//EN"
 "http://www.w3.org/TR/2001/REC-SVG-20010904/DTD/svg10.dtd">
<svg version="1.0" xmlns="http://www.w3.org/2000/svg"
 width="1024.000000pt" height="1024.000000pt" viewBox="0 0 1024.000000 1024.000000"
 preserveAspectRatio="xMidYMid meet">
<metadata>
Created by potrace 1.14, written by Peter Selinger 2001-2017
</metadata>
<g transform="translate(0.000000,1024.000000) scale(0.100000,-0.100000)"
fill="#000000" stroke="none">
<path d="M5065 9302 c-541 -47 -1006 -801 -1263 -2052 -17 -80 -33 -163 -36
-185 -4 -22 -13 -76 -21 -120 -8 -44 -17 -98 -20 -120 -3 -22 -7 -51 -10 -65
-2 -14 -7 -47 -10 -75 -7 -60 -14 -110 -20 -150 -2 -16 -7 -61 -11 -100 -3
-38 -7 -77 -9 -85 -2 -8 -6 -55 -10 -105 -4 -49 -9 -106 -11 -125 -2 -19 -6
-82 -10 -140 -3 -58 -8 -125 -9 -150 -2 -25 -4 -66 -4 -92 l-1 -47 -138 67
c-241 118 -452 177 -712 200 -382 33 -822 -62 -1200 -261 -141 -74 -410 -243
-410 -258 0 -3 44 4 97 17 120 29 367 71 476 81 108 10 445 10 527 0 97 -12
246 -46 325 -74 183 -65 374 -190 511 -336 223 -236 344 -520 429 -1012 16
-97 49 -378 71 -620 3 -33 7 -76 9 -95 2 -19 7 -64 10 -100 3 -36 8 -76 10
-90 2 -14 7 -50 10 -80 7 -61 32 -231 40 -270 3 -14 8 -41 11 -60 34 -196 127
-460 217 -615 85 -147 263 -345 356 -395 12 -6 38 -35 56 -65 l35 -54 5 -148
c10 -318 71 -465 229 -545 74 -38 157 -44 565 -43 373 2 388 3 444 24 168 65
252 254 261 593 4 121 22 157 119 237 243 198 413 493 507 881 11 47 25 101
30 120 22 82 58 308 85 535 8 72 17 146 20 165 2 19 7 60 10 90 7 69 55 445
59 468 2 9 7 37 11 62 80 487 217 811 435 1030 208 208 459 316 835 357 133
15 508 8 655 -12 8 -1 40 -5 70 -9 73 -10 348 -55 380 -63 l25 -6 -25 20 c-53
43 -299 203 -375 245 -258 142 -472 224 -725 277 -147 30 -163 32 -355 36
-200 4 -254 -1 -450 -41 -125 -25 -318 -96 -467 -170 -49 -24 -91 -44 -95 -44
-4 0 -8 17 -9 37 -3 74 -15 276 -19 317 -2 22 -7 76 -10 119 -4 43 -8 88 -10
100 -2 12 -6 58 -10 102 -3 44 -8 87 -10 95 -2 8 -6 40 -10 71 -3 31 -7 65 -9
75 -2 11 -7 46 -11 79 -4 32 -8 67 -10 76 -2 9 -6 34 -9 55 -3 22 -8 50 -11
64 -2 14 -7 43 -11 65 -9 60 -10 66 -35 195 -207 1081 -600 1850 -1052 2061
-101 47 -217 70 -312 61z"/>
</g>
</svg>
